HIERARCHY
ROOT Hips
{
	OFFSET 0.000000 0.000000 0.000000
	CHANNELS 6 Xposition Yposition Zposition Zrotation Yrotation Xrotation 
	JOINT LHipJoint
	{
		OFFSET 0.000000 0.000000 0.000000
		CHANNELS 3 Zrotation Yrotation Xrotation
		JOINT LeftUpLeg
		{
			OFFSET 1.363060 -1.794630 0.839290
			CHANNELS 3 Zrotation Yrotation Xrotation
			JOINT LeftLeg
			{
				OFFSET 2.448110 -6.726130 0.000000
				CHANNELS 3 Zrotation Yrotation Xrotation
				JOINT LeftFoot
				{
					OFFSET 2.562200 -7.039590 0.000000
					CHANNELS 3 Zrotation Yrotation Xrotation
					JOINT LeftToeBase
					{
						OFFSET 0.157640 -0.433110 2.322550
						CHANNELS 3 Zrotation Yrotation Xrotation
						End Site
						{
							OFFSET 0.000000 0.000000 0.000000
						}
					}
				}
			}
		}
	}
	JOINT RHipJoint
	{
		OFFSET 0.000000 0.000000 0.000000
		CHANNELS 3 Zrotation Yrotation Xrotation
		JOINT RightUpLeg
		{
			OFFSET -1.305520 -1.794630 0.839290
			CHANNELS 3 Zrotation Yrotation Xrotation
			JOINT RightLeg
			{
				OFFSET -2.542530 -6.985550 0.000000
				CHANNELS 3 Zrotation Yrotation Xrotation
				JOINT RightFoot
				{
					OFFSET -2.568260 -7.056230 0.000000
					CHANNELS 3 Zrotation Yrotation Xrotation
					JOINT RightToeBase
					{
						OFFSET -0.164730 -0.452590 2.363150
						CHANNELS 3 Zrotation Yrotation Xrotation
						End Site
						{
							OFFSET 0.000000 0.000000 0.000000
						}
					}
				}
			}
		}
	}
}
MOTION
Frames: 19
Frame Time: 0.008333
3.771633 17.177371 1.251334 13.856969 -34.017542 -2.116440 -8.011881 0.848760 8.291806 -14.193015 -27.298965 -10.142985 -4.063519 -1.046277 -1.629423 -1.086818 -7.304253 11.251414 -1.556700 0.000000 -43.751200 12.044657 -0.947082 -4.652473 -10.107540 -35.913934 4.948545 0.352911 0.563506 -0.357687 -4.492982 -26.489286 1.440691 -5.804200 0.000000 -58.253000
3.768338 17.186099 1.235118 14.020841 -34.506065 -2.234600 -8.077582 0.806187 8.182597 -14.203023 -26.867193 -10.282605 -4.060162 -1.045829 -1.416975 -1.086229 -7.227842 11.255424 -1.528700 -0.000000 -43.608501 12.032856 -0.999989 -4.570903 -10.036727 -35.627531 4.752688 0.366857 0.544065 -0.485083 -4.449681 -26.181742 1.471745 -5.739000 0.000000 -58.272299
3.761305 17.195443 1.218431 14.153406 -34.982960 -2.323752 -8.122674 0.776907 8.086807 -14.181467 -26.449558 -10.424231 -4.057961 -1.048581 -1.244180 -1.088279 -7.175338 11.288451 -1.510500 -0.000000 -43.478700 12.041289 -1.058139 -4.485760 -9.943287 -35.384390 4.566527 0.384900 0.533199 -0.674100 -4.400148 -25.862228 1.527749 -5.682000 0.000001 -58.287500
3.750844 17.205185 1.201691 14.256956 -35.442846 -2.382693 -8.151678 0.760049 8.009622 -14.125606 -26.070470 -10.561636 -4.054837 -1.054011 -1.124826 -1.090682 -7.125936 11.348593 -1.496200 -0.000001 -43.359000 12.062213 -1.118036 -4.402537 -9.829325 -35.194276 4.397151 0.407341 0.531664 -0.925608 -4.344696 -25.535570 1.613171 -5.636101 0.000000 -58.304400
3.737475 17.215057 1.185282 14.335277 -35.890065 -2.410269 -8.168417 0.755055 7.954408 -14.033044 -25.750343 -10.692727 -4.048419 -1.061411 -1.066874 -1.090718 -7.054142 11.428443 -1.478500 -0.000000 -43.243600 12.088713 -1.175208 -4.325971 -9.695471 -35.058761 4.245141 0.434514 0.539939 -1.233921 -4.283395 -25.202782 1.728197 -5.601100 0.000001 -58.331301
3.721990 17.224865 1.169525 14.390454 -36.331496 -2.405591 -8.178160 0.759550 7.921498 -13.900339 -25.501888 -10.816865 -4.036451 -1.070105 -1.069833 -1.086002 -6.935726 11.518403 -1.449500 0.000000 -43.125200 12.113777 -1.228006 -4.258244 -9.536906 -34.965668 4.108106 0.465915 0.556945 -1.589649 -4.218006 -24.870714 1.870893 -5.577900 0.000000 -58.374601
3.705599 17.234500 1.154534 14.419471 -36.772008 -2.369319 -8.186234 0.769820 7.907897 -13.724470 -25.329316 -10.932699 -4.017468 -1.079690 -1.123691 -1.074899 -6.750668 11.607656 -1.401800 0.000001 -42.995800 12.132129 -1.278445 -4.199093 -9.346698 -34.893814 3.983338 0.500333 0.579910 -1.979627 -4.151222 -24.548672 2.037138 -5.566700 0.000000 -58.438100
3.689344 17.243620 1.140365 14.418336 -37.221939 -2.305204 -8.193173 0.785491 7.910738 -13.506897 -25.229633 -11.039385 -3.990900 -1.089929 -1.214449 -1.056195 -6.484520 11.681321 -1.329300 -0.000000 -42.852600 12.143594 -1.327528 -4.146655 -9.124739 -34.826100 3.867151 0.536866 0.606922 -2.385553 -4.083821 -24.235542 2.217299 -5.563000 0.000000 -58.528600
3.673838 17.251780 1.127179 14.382708 -37.700005 -2.219303 -8.193973 0.810691 7.931778 -13.251081 -25.193649 -11.139030 -3.956849 -1.100763 -1.327003 -1.029120 -6.129643 11.722911 -1.227900 0.000000 -42.697900 12.153227 -1.376192 -4.093703 -8.873348 -34.748727 3.751981 0.575023 0.637890 -2.788750 -4.014933 -23.922196 2.398035 -5.558400 -0.000000 -58.654700
3.659712 17.258778 1.114946 14.306475 -38.224385 -2.117965 -8.185272 0.848679 7.971290 -12.960335 -25.207223 -11.235412 -3.915071 -1.111650 -1.444987 -0.993251 -5.685978 11.720053 -1.096800 -0.000001 -42.537800 12.164715 -1.425406 -4.033749 -8.594051 -34.648193 3.630928 0.614365 0.672505 -3.173062 -3.943990 -23.601949 2.570094 -5.547500 0.000000 -58.823199
3.647465 17.264774 1.103306 14.202258 -38.824748 -2.009605 -8.172116 0.898983 8.021080 -12.642053 -25.238668 -11.335127 -3.864097 -1.121024 -1.553338 -0.948095 -5.162089 11.666127 -0.938800 -0.000001 -42.366401 12.174417 -1.472860 -3.960784 -8.282557 -34.480065 3.496007 0.650854 0.709952 -3.528599 -3.875077 -23.288115 2.722089 -5.530501 0.000000 -59.016300
3.637793 17.269815 1.091607 14.084725 -39.515074 -1.905417 -8.162230 0.956729 8.067888 -12.308033 -25.260053 -11.438327 -3.803189 -1.126995 -1.636159 -0.893737 -4.573124 11.558764 -0.759700 0.000000 -42.196299 12.176390 -1.514682 -3.878645 -7.946810 -34.225406 3.348353 0.682658 0.747789 -3.844920 -3.809767 -22.982282 2.847339 -5.505800 -0.000000 -59.229500
3.630895 17.273895 1.079112 13.965582 -40.292709 -1.817424 -8.158274 1.017622 8.100592 -11.972199 -25.251614 -11.535961 -3.733948 -1.129018 -1.683216 -0.831308 -3.937341 11.400329 -0.566300 0.000000 -42.039400 12.170153 -1.548728 -3.794370 -7.604772 -33.894916 3.195243 0.710444 0.783354 -4.112875 -3.746087 -22.670580 2.943575 -5.468600 0.000001 -59.468300
3.626760 17.277210 1.065391 13.852762 -41.157957 -1.752221 -8.163055 1.078438 8.108998 -11.647523 -25.184017 -11.624626 -3.658515 -1.127216 -1.688239 -0.763011 -3.280007 11.197030 -0.367800 -0.000000 -41.905600 12.155768 -1.574880 -3.708894 -7.263883 -33.483070 3.036812 0.733516 0.814919 -4.329470 -3.684256 -22.350213 3.007187 -5.416900 0.000000 -59.722400
3.624939 17.280034 1.050052 13.754288 -42.105109 -1.716499 -8.177066 1.137481 8.086950 -11.344386 -25.036127 -11.696510 -3.579670 -1.122381 -1.654083 -0.691354 -2.623981 10.960453 -0.172300 0.000000 -41.798500 12.135225 -1.593884 -3.624074 -6.933205 -33.001228 2.875002 0.752701 0.841317 -4.495198 -3.622527 -22.012123 3.042184 -5.349800 0.000001 -59.988800
3.624978 17.282809 1.033026 13.674739 -43.130555 -1.711167 -8.201760 1.194327 8.030249 -11.069779 -24.782783 -11.754850 -3.499635 -1.114844 -1.581336 -0.619355 -1.995838 10.703111 0.011200 0.000001 -41.734001 12.109417 -1.607124 -3.537294 -6.611985 -32.447251 2.705856 0.767812 0.862613 -4.615229 -3.561232 -21.658413 3.050823 -5.269300 -0.000001 -60.254300
3.626119 17.285907 1.014254 13.619719 -44.227679 -1.737994 -8.236552 1.249946 7.939260 -10.827365 -24.411712 -11.796865 -3.420637 -1.105526 -1.479957 -0.549465 -1.412277 10.439374 0.177600 0.000000 -41.716400 12.080333 -1.616298 -3.447346 -6.302295 -31.834401 2.527993 0.780158 0.879305 -4.696609 -3.498599 -21.283589 3.041697 -5.177200 0.000000 -60.513500
3.627906 17.289705 0.993798 13.590007 -45.389750 -1.801344 -8.280109 1.305406 7.817110 -10.618060 -23.922559 -11.812270 -3.344297 -1.095624 -1.369935 -0.483010 -0.876890 10.185505 0.326100 -0.000000 -41.734400 12.049534 -1.622874 -3.354646 -6.008710 -31.182236 2.343930 0.791652 0.891829 -4.746656 -3.431692 -20.877587 3.026593 -5.075200 -0.000000 -60.767499
3.629775 17.294459 0.972018 13.587707 -46.612980 -1.898112 -8.331772 1.362848 7.669229 -10.438201 -23.314799 -11.806407 -3.271365 -1.085781 -1.261449 -0.421109 -0.394003 9.950944 0.456100 -0.000000 -41.790300 12.017651 -1.628799 -3.255271 -5.726068 -30.496752 2.148778 0.803300 0.901776 -4.774882 -3.359765 -20.440972 3.013094 -4.966100 -0.000000 -61.009900
